P2
# Hse
64 64
255
182
184
179
195
184
180
184
199
201
200
203
205
204
202
205
206
204
205
203
204
204
207
204
205
204
203
205
201
205
203
203
207
204
204
203
202
202
202
202
202
202
202
203
204
204
204
204
204
205
204
204
205
205
206
207
208
208
210
211
212
214
216
220
194
157
163
147
137
144
152
149
166
162
178
195
194
196
197
197
197
197
197
198
198
197
197
197
197
197
198
197
197
197
198
198
198
197
196
195
194
194
194
194
195
196
196
196
197
198
198
199
199
199
200
200
200
200
202
203
204
205
207
208
210
212
215
220
188
130
127
124
127
140
129
135
125
115
154
175
178
197
196
197
195
197
198
198
197
197
198
198
197
197
197
197
198
198
198
198
198
197
197
196
195
195
196
196
196
196
197
198
198
199
199
199
200
200
200
200
200
200
202
203
203
205
207
208
210
212
214
219
188
118
113
98
117
127
124
135
120
133
133
145
177
188
193
193
191
197
198
198
198
198
198
198
197
198
198
198
198
198
197
198
198
198
197
197
196
197
197
197
197
198
198
199
199
200
199
200
201
201
201
201
201
201
202
202
204
204
206
208
210
212
214
219
188
121
114
104
119
115
119
145
122
122
130
150
145
169
170
183
180
188
198
198
198
198
198
198
198
198
198
198
198
198
198
198
198
198
197
197
197
197
197
198
198
198
199
199
200
200
200
200
201
201
201
201
201
201
202
202
203
204
206
207
209
211
214
219
189
147
143
136
145
137
108
121
127
131
117
125
132
140
130
141
178
182
193
197
198
198
198
198
197
198
198
198
198
198
198
198
198
199
197
197
198
198
198
198
198
199
199
200
200
200
200
200
201
201
201
201
201
201
202
202
202
203
205
207
209
211
214
219
189
157
160
155
130
144
120
107
108
109
125
133
153
130
126
134
158
160
171
192
194
198
198
198
198
198
198
198
198
198
198
199
199
198
198
198
197
197
198
198
199
199
199
199
199
200
201
201
200
200
201
201
202
201
202
202
202
203
205
206
208
210
214
218
189
154
165
140
134
132
152
146
98
106
107
137
129
137
132
128
141
143
151
178
184
197
198
198
199
199
198
198
198
198
199
199
199
199
199
198
198
199
198
199
199
199
199
199
200
200
200
200
201
201
202
202
202
202
203
203
203
203
204
205
208
210
213
218
189
156
162
182
141
147
146
157
149
133
115
123
142
139
124
118
126
130
154
173
190
196
197
199
199
199
199
199
199
199
199
200
200
200
200
200
199
197
195
197
198
198
199
200
200
201
201
201
202
202
202
202
203
203
203
203
203
204
205
206
208
210
213
218
189
147
152
186
149
161
159
142
140
148
133
139
138
125
133
119
141
129
138
147
175
175
195
200
200
200
199
199
200
200
200
200
200
200
199
198
194
186
185
189
188
189
191
196
198
201
201
202
202
202
203
203
204
203
204
204
204
204
205
206
208
210
212
217
190
130
156
175
127
155
180
147
132
159
132
128
147
140
139
137
145
133
142
129
129
131
190
201
200
200
200
200
200
201
201
197
188
186
186
188
180
171
177
182
182
186
179
185
190
200
202
202
202
203
203
203
203
204
204
204
204
204
204
206
207
209
212
217
190
127
116
149
162
179
189
153
136
153
128
135
145
135
141
134
134
124
129
113
99
98
198
201
201
201
201
202
202
202
200
195
179
176
182
174
170
168
169
172
172
184
173
182
185
193
201
202
203
203
204
204
204
204
205
204
204
205
205
206
207
209
212
217
190
104
121
129
171
176
169
143
160
138
160
155
157
145
137
142
135
127
123
113
123
115
182
202
202
202
202
202
203
203
198
185
183
177
180
172
170
172
170
164
168
185
163
173
174
185
196
200
203
203
204
204
204
204
205
205
205
205
205
206
208
209
212
217
189
113
123
124
123
122
160
147
155
141
132
167
112
149
164
174
162
146
107
115
128
127
142
160
172
183
198
203
203
201
195
181
184
172
178
180
173
174
172
164
172
175
157
173
172
177
183
197
202
204
203
203
204
204
204
204
205
205
206
207
208
210
212
217
190
113
116
120
120
144
156
149
187
142
152
126
119
156
143
134
197
148
136
108
124
136
156
160
165
158
150
152
168
180
184
189
179
170
180
185
167
164
160
140
156
154
158
174
174
168
174
159
185
200
199
199
199
197
200
199
200
204
206
207
208
209
210
215
189
80
117
116
133
144
147
176
194
145
151
148
132
133
143
147
183
159
173
149
106
128
152
153
153
156
160
161
164
162
159
158
161
160
156
175
155
139
152
135
158
146
170
172
171
150
145
103
107
176
192
194
191
188
192
191
192
198
205
206
204
203
202
210
184
87
112
116
129
123
120
167
171
136
162
176
169
157
147
152
143
148
169
142
129
125
149
152
159
154
158
158
163
169
169
163
165
168
166
176
161
145
153
156
165
148
164
170
173
152
107
105
109
161
182
188
181
188
194
190
189
194
198
201
195
186
186
195
162
92
100
126
123
131
139
169
154
195
173
192
147
147
152
150
128
135
122
142
168
142
140
149
160
154
157
165
162
163
170
165
159
164
172
172
164
149
146
187
152
159
168
166
162
136
104
95
99
136
164
162
173
183
190
181
177
181
186
186
186
171
172
179
153
76
141
136
96
149
140
140
182
198
187
202
148
148
156
119
118
123
88
116
133
133
131
140
150
160
160
163
164
157
157
160
164
163
164
166
172
161
150
175
151
163
175
167
141
128
90
76
94
107
117
144
182
186
183
173
181
188
189
187
183
160
158
162
145
92
99
101
118
131
144
123
190
170
152
168
147
139
111
127
109
120
110
134
133
141
148
152
116
127
150
161
161
159
159
160
161
165
164
162
169
173
168
160
164
141
138
154
139
107
95
72
99
83
100
159
179
178
175
172
175
183
181
184
170
161
145
150
137
105
117
120
120
128
125
164
157
176
185
151
126
148
126
115
107
108
110
118
138
132
139
182
131
114
139
155
160
162
163
160
160
162
166
168
167
169
174
165
158
124
116
122
137
108
98
100
112
76
87
164
181
172
172
156
132
160
174
175
144
143
127
132
125
118
122
131
133
111
123
112
143
175
189
160
155
130
127
138
126
99
105
125
111
135
172
147
183
173
136
150
159
159
167
163
169
170
164
169
170
173
170
171
166
128
118
127
126
112
108
120
121
110
104
154
186
169
165
133
114
157
149
163
125
134
121
120
112
119
128
131
119
108
122
160
148
139
145
142
172
168
140
136
137
148
149
131
120
147
178
189
202
207
191
136
145
161
162
164
166
167
166
169
169
171
169
170
173
169
153
148
148
148
145
141
136
135
164
152
177
149
134
118
112
140
126
137
113
117
124
124
106
86
150
125
112
116
155
170
162
118
94
149
168
157
150
148
152
139
111
113
133
120
128
188
211
201
209
186
158
165
164
163
165
165
173
169
172
167
168
168
174
174
169
142
138
130
131
131
133
135
201
181
133
122
125
120
119
115
117
116
107
111
116
126
110
85
118
115
174
133
186
156
162
144
120
132
130
136
164
140
113
123
120
121
121
118
159
125
185
189
196
199
194
152
144
148
149
156
159
167
169
171
160
161
162
167
176
173
144
128
127
130
133
161
218
209
105
112
124
122
117
110
120
118
119
130
132
128
110
62
143
129
140
155
161
175
166
133
157
118
117
130
154
133
123
123
107
102
119
110
132
125
183
189
201
209
183
133
121
126
126
126
124
129
133
144
152
158
160
158
160
163
173
146
130
131
134
196
214
218
156
117
126
127
113
109
119
115
115
139
111
108
105
94
126
113
126
136
118
118
125
140
110
132
113
118
141
128
106
114
133
153
117
113
122
122
157
207
207
217
191
149
147
140
134
134
134
126
118
123
121
117
111
121
128
130
132
158
129
130
155
213
215
219
192
87
92
113
117
112
103
114
125
133
104
116
112
112
111
115
133
142
124
98
95
105
108
111
124
126
166
155
113
73
127
164
153
135
163
134
37
189
196
200
196
102
124
147
133
117
126
136
164
136
106
163
163
126
139
144
145
178
169
170
194
213
199
211
217
105
109
108
120
114
108
113
123
119
114
111
99
107
80
100
161
159
134
91
115
110
113
118
161
123
160
184
142
99
144
155
171
189
144
147
34
192
194
199
187
87
163
164
147
129
162
153
184
156
151
214
198
142
176
190
162
214
218
219
214
213
212
213
220
157
107
104
106
111
111
119
124
104
112
101
91
100
96
77
177
178
135
108
111
88
78
150
176
153
177
194
136
80
167
170
156
178
167
116
35
189
191
179
178
78
147
167
152
125
155
153
185
177
201
220
196
147
175
190
167
170
212
220
214
207
207
210
216
179
114
99
100
117
103
125
109
94
112
96
77
93
62
92
184
185
97
81
127
92
75
132
183
187
193
197
123
80
162
199
182
173
145
103
41
190
185
188
167
65
157
173
156
120
167
155
186
187
217
219
194
158
182
192
170
163
200
225
207
81
79
100
181
155
101
90
102
141
120
126
106
102
110
102
95
85
82
108
170
127
164
158
172
174
175
176
198
191
196
186
114
73
201
202
196
186
174
112
59
207
200
178
157
83
186
172
162
130
192
157
190
192
217
218
194
167
189
195
178
166
207
223
198
92
108
140
209
159
121
109
123
127
124
138
107
106
106
105
93
71
56
78
186
127
156
181
194
191
183
181
193
192
195
186
117
97
194
190
190
203
205
118
71
197
194
200
139
92
158
202
204
205
206
207
212
173
146
205
212
157
87
192
215
149
91
179
194
98
138
200
220
143
89
109
99
134
107
132
124
123
111
121
97
61
50
78
98
187
198
197
199
189
199
193
158
157
176
197
155
140
187
179
192
214
210
128
69
179
199
203
76
32
78
194
205
207
207
209
215
100
79
141
203
88
84
148
215
103
66
99
187
116
182
222
220
142
107
117
78
78
71
92
127
95
118
114
88
54
43
90
177
196
202
209
147
150
203
199
152
165
179
161
175
178
149
151
169
170
178
198
209
205
203
177
32
25
33
176
204
207
208
210
188
76
72
68
171
72
100
146
171
92
85
79
128
101
208
214
219
126
91
120
94
91
72
73
128
96
110
100
88
76
103
67
195
184
166
160
79
38
149
152
151
126
109
69
70
130
69
42
81
120
136
164
160
162
186
125
33
31
55
123
156
164
149
165
100
85
89
89
97
88
96
145
69
76
69
63
64
65
145
160
166
125
120
134
123
117
115
94
114
114
113
117
115
43
84
43
53
65
60
67
98
42
56
43
62
38
60
48
58
68
56
45
27
44
58
44
50
75
63
35
38
37
45
58
55
54
162
135
68
60
58
58
66
63
107
140
103
102
106
128
132
134
143
145
144
145
148
147
147
147
141
141
144
146
146
146
132
52
37
28
27
25
23
53
151
54
62
66
112
65
69
64
34
39
61
59
35
31
28
25
63
91
77
41
39
52
72
67
68
69
114
135
142
141
139
137
143
141
136
137
142
143
141
143
141
144
143
140
142
140
141
140
139
139
141
142
146
148
151
160
143
94
51
30
31
29
28
54
144
60
47
81
70
80
101
63
30
31
37
56
72
33
35
52
80
114
132
137
131
140
146
147
148
147
144
135
136
139
138
138
139
141
141
139
136
134
138
141
140
138
142
141
137
140
141
143
142
142
143
138
137
140
151
159
143
126
77
91
88
54
65
92
91
94
93
100
79
72
90
108
121
113
126
118
128
116
122
135
147
148
148
153
158
149
143
147
144
140
144
143
148
143
148
136
135
136
137
140
139
139
140
140
138
138
137
138
137
138
137
138
139
145
144
144
132
82
133
157
144
119
103
112
118
123
138
142
142
143
141
142
142
139
138
140
141
137
134
137
138
139
142
144
144
167
151
132
128
132
119
118
114
111
119
120
113
115
135
154
165
153
139
140
144
145
143
140
139
143
140
140
139
138
139
136
141
145
149
156
144
65
106
139
144
134
143
143
143
144
147
145
140
143
145
139
137
138
137
136
139
143
144
137
131
127
134
138
180
169
137
129
138
126
125
147
139
118
119
133
136
128
124
145
160
172
167
146
144
145
145
139
139
137
135
136
137
145
146
147
142
145
141
144
139
58
137
160
142
154
145
135
142
146
163
151
146
144
152
146
140
140
139
139
140
145
143
139
135
137
143
175
162
142
145
141
118
135
138
145
131
110
113
140
149
148
130
104
117
137
158
174
153
134
132
133
138
138
135
136
136
136
133
136
136
142
140
147
149
69
122
155
139
156
186
166
165
184
189
183
191
179
182
176
177
176
176
177
159
132
130
139
143
125
158
158
147
112
113
105
133
145
174
109
127
107
114
141
149
150
144
121
105
112
128
140
141
158
154
161
149
150
150
141
130
130
134
135
132
133
131
131
134
80
93
149
140
145
166
162
171
190
187
193
178
174
174
175
174
174
176
176
175
172
172
172
171
171
174
177
182
175
168
168
160
158
154
151
150
150
149
158
158
168
160
146
151
152
154
157
157
157
160
163
165
167
173
156
139
121
125
127
123
117
125
131
139
89
58
139
138
130
134
137
146
173
169
158
156
151
161
162
169
174
174
172
172
170
170
170
170
174
177
186
190
188
182
188
176
174
168
166
169
168
169
172
172
175
164
170
169
170
173
178
184
189
194
197
198
198
211
124
103
83
129
162
173
128
135
154
137
122
63
145
166
140
137
141
136
138
142
139
145
150
148
160
142
76
78
88
125
147
146
144
140
146
147
190
201
190
160
157
144
145
140
142
145
147
150
153
142
140
155
156
152
150
156
166
175
180
187
196
205
206
201
98
67
65
150
150
155
139
117
115
153
161
118
140
158
121
126
125
122
123
129
135
134
111
104
146
76
72
100
101
80
124
147
141
138
144
146
182
195
191
162
157
142
140
139
137
128
135
139
126
120
141
141
132
125
118
123
136
144
150
157
163
167
169
153
101
111
110
102
143
189
185
126
120
132
158
97
116
118
120
128
132
125
124
124
124
128
126
106
94
75
100
144
204
160
75
112
107
101
105
109
112
123
124
123
121
104
106
112
119
120
127
134
119
113
130
129
126
122
129
134
143
149
153
157
156
153
152
180
147
81
61
108
105
136
146
126
109
115
97
53
64
106
120
135
132
122
129
130
129
127
127
130
131
134
123
165
198
158
84
87
109
85
84
82
90
98
98
99
95
81
92
87
89
102
99
109
108
93
125
169
179
86
45
75
91
99
107
111
114
110
105
125
62
33
52
80
119
110
102
97
94
106
103
55
55
91
125
133
132
127
131
133
125
128
125
123
170
169
124
164
158
136
99
53
77
88
55
51
59
66
67
62
53
56
75
66
60
75
75
117
132
140
146
167
164
117
33
34
43
60
63
65
60
58
49
44
26
24
36
96
103
98
94
86
98
105
115
69
59
81
127
130
130
133
139
141
143
145
142
151
179
184
151
124
116
103
99
77
110
89
62
55
70
70
58
59
53
43
70
49
36
92
102
125
139
140
150
151
134
87
33
29
24
25
24
27
26
27
24
25
29
84
128
132
130
121
114
117
122
139
150
108
86
97
128
132
126
135
138
144
142
156
163
166
166
156
150
139
151
151
154
141
150
138
128
127
129
124
125
127
127
127
132
116
113
107
134
149
163
156
112
95
99
36
39
86
83
99
113
117
122
126
127
130
140
146
145
144
141
137
138
140
144
157
161
131
102
94
158
162
166
171
173
176
168
170
174
176
175
176
167
170
173
174
176
172
178
176
172
174
170
171
174
177
177
181
183
175
167
176
183
190
192
192
179
168
170
165
172
177
178
183
186
187
187
189
189
189
189
189
187
188
189
183
183
183
184
188
191
185
171
152
207
221
220
221
221
221
221
221
221
221
221
221
221
221
221
221
221
221
221
221
221
221
221
221
221
221
221
221
221
221
221
221
221
220
221
221
221
221
221
221
221
222
221
222
222
222
222
222
222
222
222
222
222
222
222
222
221
222
222
222
222
224
227
203
201
215
215
214
213
213
213
213
215
213
212
209
208
208
208
209
209
210
209
209
208
208
208
209
208
207
207
207
206
209
210
209
211
212
213
214
214
213
213
213
213
212
212
212
212
212
213
213
212
212
213
213
214
211
210
209
211
211
211
211
211
214
217
195
195
208
207
206
206
206
204
204
207
206
201
196
194
193
194
196
196
195
194
195
195
194
195
196
193
191
188
188
191
195
195
196
199
199
200
202
202
200
200
199
200
200
200
201
200
201
202
204
204
205
206
206
207
201
196
195
198
200
201
198
197
198
202
179
196
211
211
208
208
206
204
201
206
204
200
194
193
194
193
194
195
196
195
193
197
193
193
194
192
190
188
189
190
194
197
195
197
198
200
203
203
200
202
200
200
200
201
200
199
199
203
204
206
207
206
207
205
200
195
195
196
195
197
196
196
198
202
179
196
210
209
210
209
203
202
199
204
205
201
195
192
192
193
193
194
196
194
195
198
194
192
197
194
190
188
188
191
192
197
196
197
200
201
201
202
201
202
203
201
202
201
201
201
200
202
204
206
206
207
207
204
198
195
194
196
189
185
188
189
182
167
180
197
212
209
208
208
205
204
201
205
206
202
196
192
192
192
194
194
193
193
195
199
196
193
197
195
192
191
192
193
195
196
198
199
201
202
203
203
201
202
200
199
201
203
201
200
200
201
202
204
205
204
204
201
197
194
193
194
185
185
190
189
192
176
179
198
210
211
209
207
205
201
199
204
203
199
194
191
192
192
194
192
192
192
195
198
197
195
196
194
191
192
192
192
194
196
199
199
200
202
203
204
203
200
200
200
201
203
203
201
201
200
202
204
205
205
202
201
197
195
193
192
187
187
189
187
190
183
178
198
211
212
211
208
205
202
200
204
202
198
195
192
190
189
191
192
193
192
195
197
193
191
194
193
190
190
190
190
193
195
198
201
202
203
203
204
202
200
200
200
201
202
203
202
202
201
202
203
204
203
199
197
196
194
192
191
185
187
190
190
190
184
179
198
211
212
212
209
206
203
198
203
203
199
197
194
190
189
188
190
193
193
194
193
191
190
193
192
190
188
187
190
190
195
198
200
200
202
200
200
198
197
198
199
200
203
203
202
201
201
201
203
204
203
200
198
197
194
194
192
186
185
189
188
192
180
174
187
200
200
201
200
199
194
189
194
195
191
188
184
184
182
182
184
186
185
183
181
180
183
184
184
182
183
181
181
183
185
188
191
191
194
192
192
189
188
189
190
192
194
194
193
194
193
193
194
196
194
194
193
191
188
187
185
179
179
180
180
180
180
164
